<?xml version="1.0" standalone="no"?>
<!DOCTYPE svg PUBLIC "-//W3C//DTD SVG 20010904//EN"
 "http://www.w3.org/TR/2001/REC-SVG-20010904/DTD/svg10.dtd">
<svg version="1.0" xmlns="http://www.w3.org/2000/svg"
 width="323.000000pt" height="323.000000pt" viewBox="0 0 323.000000 323.000000"
 preserveAspectRatio="xMidYMid meet">
<metadata>
Created by potrace 1.11, written by Peter Selinger 2001-2013
</metadata>
<g transform="translate(0.000000,323.000000) scale(0.100000,-0.100000)"
fill="#000000" stroke="none">
<path d="M142 2830 c-24 -11 -59 -37 -78 -57 -67 -75 -65 -34 -62 -1014 l3
-884 22 -41 c27 -51 90 -107 137 -121 22 -7 247 -10 641 -10 334 0 610 -4 614
-9 5 -5 34 -72 66 -149 31 -77 60 -146 64 -153 6 -10 158 171 257 307 2 2 280
3 618 3 585 1 617 2 658 20 53 24 93 61 121 113 l22 40 0 900 c0 853 -1 902
-18 937 -23 46 -66 92 -109 115 -31 17 -110 18 -1473 20 -1416 3 -1441 2
-1483 -17z m2696 -1054 l-3 -741 -1220 0 -1220 0 -3 741 -2 742 1225 0 1225 0
-2 -742z"/>
<path d="M1060 2269 c-19 -4 -47 -21 -62 -38 l-28 -31 0 -358 c0 -263 4 -363
13 -381 21 -42 57 -59 137 -66 128 -10 253 -33 331 -61 109 -40 218 -38 325 5
56 22 180 48 263 56 91 8 145 16 173 27 53 20 56 42 57 408 0 206 -3 347 -10
367 -21 65 -101 85 -274 69 -109 -10 -205 -30 -298 -60 l-78 -26 -61 20 c-85
28 -224 53 -368 66 -41 3 -77 7 -80 9 -3 1 -21 -2 -40 -6z m280 -129 c47 -10
110 -28 140 -39 l55 -21 0 -322 c-1 -198 -5 -323 -10 -322 -6 1 -48 9 -95 18
-106 20 -130 23 -205 31 -33 4 -68 9 -77 11 -15 4 -17 35 -16 340 l0 335 61
-6 c34 -4 100 -15 147 -25z m761 23 c3 -49 1 -654 -3 -658 -2 -2 -29 -7 -59
-10 -104 -10 -164 -17 -169 -20 -3 -2 -25 -6 -50 -10 -25 -4 -47 -8 -51 -10
-3 -2 -19 -7 -36 -9 l-30 -6 0 320 c0 316 1 320 22 334 23 15 133 49 205 63
61 12 170 16 171 6z"/>
</g>
</svg>
