<svg xmlns="http://www.w3.org/2000/svg" viewBox="0 0 1041 375.44"><defs><style>.cls-1{fill:#ccc}.cls-2{fill:#29c1e2}.cls-3,.cls-4{fill:none;stroke-miterlimit:10}.cls-3{stroke:#b3b3b3;stroke-width:8px}.cls-4{stroke:#29c1e2;stroke-width:10px}.cls-6{fill:#1a1a1a}</style></defs><g id="レイヤー_2" data-name="レイヤー 2"><g id="レイヤー_1-2" data-name="レイヤー 1"><path class="cls-1" d="M550.78 155.75h-13.84c-1.22-7.85-5.61-17.08-13.18-17.08q-7.34 0-11 2.94t-3.67 8.83q0 4.34 4 8.27l29.52 27.75q8.17 7.71 8.17 16.54v5.75q0 9.53-8.17 16.47a29.4 29.4 0 01-19.68 6.94h-13.84q-13.85 0-20.85-5.82c-7.86-8.29-7-18.53-7-26.38h14v10.75a8 8 0 004.34 7.29 18.54 18.54 0 009.51 2.52q7.34 0 10.59-3t3.25-8.76q0-4.48-4-8.27l-29.52-27.75q-8.18-7.57-8.17-16.54v-5.75q0-9.53 8.17-16.47a29.39 29.39 0 0119.68-6.98h13.84c17.45 0 26.74 13.14 27.85 28.75zM651.89 204c-1.09 15.61-4.74 28.17-27.22 28.17h-27.39a28.86 28.86 0 01-19.28-6.89q-8.12-6.86-8.12-16.54v-58.3q0-9.53 8-16.47a28.52 28.52 0 0119.4-6.97h27.38c22.48 0 26.24 19.14 27.22 34.74h-13.6s.83-23.11-13.61-23.11h-13.78a14.29 14.29 0 00-9.59 3.43 10.58 10.58 0 00-4 8.34v58.31a10.65 10.65 0 004 8.27 14.1 14.1 0 009.59 3.5h13.77c12.43 0 13.61-16.54 13.61-16.54zM667.2 232.15V127h27.39v46.7H722V127h27.22v105.15H722V187.9h-27.42v44.25zM791.85 127h27.39a28.39 28.39 0 0119.19 7q8 6.94 8 16.47v58.31q0 9.53-8 16.47a28.39 28.39 0 01-19.19 6.94h-27.39a28.87 28.87 0 01-19.27-6.87q-8.12-6.86-8.12-16.54v-58.34q0-9.67 8.12-16.54a28.88 28.88 0 0119.27-6.9zm0 23.41v58.31a10.65 10.65 0 004 8.27 14.1 14.1 0 009.59 3.5 14.32 14.32 0 009.76-3.5 10.66 10.66 0 004-8.27v-58.28a10.59 10.59 0 00-4-8.34 14.51 14.51 0 00-9.76-3.43 14.28 14.28 0 00-9.59 3.43 10.58 10.58 0 00-4 8.34zM889.13 127h27.39a28.39 28.39 0 0119.18 7q8 6.94 8 16.47v58.31q0 9.53-8 16.47a28.39 28.39 0 01-19.19 6.94h-27.38a28.86 28.86 0 01-19.27-6.87q-8.12-6.86-8.12-16.54v-58.34q0-9.67 8.12-16.54a28.87 28.87 0 0119.27-6.9zm0 23.41v58.31a10.66 10.66 0 004 8.27 14.1 14.1 0 009.59 3.5 14.32 14.32 0 009.76-3.5 10.66 10.66 0 004-8.27v-58.28a10.59 10.59 0 00-4-8.34 14.51 14.51 0 00-9.76-3.43 14.28 14.28 0 00-9.59 3.43 10.59 10.59 0 00-4 8.34zM961 232.15V127h27.4v89h36.52l16.08 16.15z"/><path class="cls-2" d="M544.75 155.75h-13.84c-1.22-7.85-5.61-17.08-13.18-17.08q-7.34 0-11 2.94t-3.67 8.83q0 4.34 4 8.27l29.52 27.75q8.17 7.71 8.17 16.54v5.75q0 9.53-8.17 16.47a29.4 29.4 0 01-19.68 6.94h-13.84q-13.85 0-20.85-5.82c-7.86-8.29-7-18.53-7-26.38h14v10.75a8 8 0 004.34 7.29 18.54 18.54 0 009.51 2.52q7.34 0 10.59-3t3.25-8.76q0-4.48-4-8.27l-29.52-27.75q-8.18-7.57-8.17-16.54v-5.75q0-9.53 8.17-16.47a29.39 29.39 0 0119.68-6.98h13.84c17.46 0 26.74 13.14 27.85 28.75zM645.86 204c-1.09 15.61-4.74 28.17-27.22 28.17h-27.39a28.86 28.86 0 01-19.25-6.89q-8.12-6.86-8.12-16.54v-58.3q0-9.53 8-16.47a28.52 28.52 0 0119.37-6.97h27.38c22.48 0 26.24 19.14 27.22 34.74h-13.6s.83-23.11-13.61-23.11h-13.78a14.29 14.29 0 00-9.59 3.43 10.58 10.58 0 00-4 8.34v58.31a10.65 10.65 0 004 8.27 14.1 14.1 0 009.59 3.5h13.77c12.43 0 13.61-16.54 13.61-16.54zM661.17 232.15V127h27.39v46.7h27.38V127h27.22v105.15h-27.22V187.9h-27.39v44.25z"/><path class="cls-1" d="M379.2 108.15V3h27.39v46.7H434V3h27.22v105.15H434V63.9h-27.42v44.25z"/><path class="cls-2" d="M373.17 108.15V3h27.39v46.7h27.38V3h27.22v105.15h-27.22V63.9h-27.39v44.25zM785.83 127h27.39a28.39 28.39 0 0119.18 7q8 6.94 8 16.47v58.31q0 9.53-8 16.47a28.39 28.39 0 01-19.19 6.94h-27.38a28.87 28.87 0 01-19.27-6.87q-8.12-6.86-8.12-16.54v-58.34q0-9.67 8.12-16.54a28.88 28.88 0 0119.27-6.9zm0 23.41v58.31a10.65 10.65 0 004 8.27 14.1 14.1 0 009.59 3.5 14.32 14.32 0 009.76-3.5 10.66 10.66 0 004-8.27v-58.28a10.59 10.59 0 00-4-8.34 14.51 14.51 0 00-9.76-3.43 14.28 14.28 0 00-9.59 3.43 10.58 10.58 0 00-4 8.34z"/><path class="cls-1" d="M693.85 3h27.39a28.39 28.39 0 0119.19 7q8 6.94 8 16.47v58.27q0 9.53-8 16.47a28.39 28.39 0 01-19.19 6.94h-27.39a28.87 28.87 0 01-19.27-6.87q-8.12-6.86-8.12-16.54v-58.3q0-9.67 8.12-16.54A28.88 28.88 0 01693.85 3zm0 23.41v58.33a10.65 10.65 0 004 8.27 14.1 14.1 0 009.59 3.5 14.32 14.32 0 009.76-3.5 10.66 10.66 0 004-8.27v-58.3a10.59 10.59 0 00-4-8.34 14.51 14.51 0 00-9.76-3.43 14.28 14.28 0 00-9.59 3.43 10.58 10.58 0 00-4 8.34z"/><path class="cls-2" d="M687.83 3h27.39a28.39 28.39 0 0119.18 7q8 6.94 8 16.47v58.27q0 9.53-8 16.47a28.39 28.39 0 01-19.19 6.94h-27.38a28.87 28.87 0 01-19.27-6.87q-8.12-6.86-8.12-16.54v-58.3q0-9.67 8.12-16.54A28.88 28.88 0 01687.83 3zm0 23.41v58.33a10.65 10.65 0 004 8.27 14.1 14.1 0 009.59 3.5 14.32 14.32 0 009.76-3.5 10.66 10.66 0 004-8.27v-58.3a10.59 10.59 0 00-4-8.34 14.51 14.51 0 00-9.76-3.43 14.28 14.28 0 00-9.59 3.43 10.58 10.58 0 00-4 8.34z"/><path class="cls-1" d="M503.85 0h27.39a28.39 28.39 0 0119.19 7q8 6.94 8 16.47v58.27q0 9.53-8 16.47a28.39 28.39 0 01-19.19 6.94h-27.39a28.87 28.87 0 01-19.27-6.87q-8.12-6.86-8.12-16.54v-58.3q0-9.67 8.12-16.54A28.88 28.88 0 01503.85 0zm0 23.41v58.33a10.65 10.65 0 004 8.27 14.1 14.1 0 009.59 3.5 14.32 14.32 0 009.76-3.5 10.66 10.66 0 004-8.27v-58.3a10.59 10.59 0 00-4-8.34 14.51 14.51 0 00-9.76-3.43 14.28 14.28 0 00-9.59 3.43 10.58 10.58 0 00-4 8.34z"/><path class="cls-2" d="M498 0l27.39.07a28.39 28.39 0 0119.17 7q8 7 8 16.49l-.14 58.31q0 9.53-8.07 16.45a28.39 28.39 0 01-19.2 6.89l-27.39-.07a28.87 28.87 0 01-19.25-6.91q-8.1-6.88-8.08-16.56l.14-58.31q0-9.67 8.16-16.52A28.88 28.88 0 01498 0zm-.06 23.41l-.14 58.31a10.65 10.65 0 004 8.28 14.1 14.1 0 009.58 3.53A14.32 14.32 0 00521.1 90a10.66 10.66 0 004-8.26l.14-58.31a10.59 10.59 0 00-4-8.35 14.51 14.51 0 00-9.75-3.46 14.28 14.28 0 00-9.6 3.41 10.58 10.58 0 00-3.99 8.38zM883.1 127h27.39a28.39 28.39 0 0119.18 7q8 6.94 8 16.47v58.31q0 9.53-8 16.47a28.39 28.39 0 01-19.19 6.94H883.1a28.86 28.86 0 01-19.27-6.87q-8.12-6.86-8.12-16.54v-58.34q0-9.67 8.12-16.54a28.87 28.87 0 0119.27-6.9zm0 23.41v58.31a10.66 10.66 0 004 8.27 14.1 14.1 0 009.59 3.5 14.32 14.32 0 009.76-3.5 10.66 10.66 0 004-8.27v-58.28a10.59 10.59 0 00-4-8.34 14.51 14.51 0 00-9.76-3.43 14.28 14.28 0 00-9.59 3.43 10.59 10.59 0 00-4 8.34zM955 232.15V127h27.39v89h36.52l16.09 16.15z"/><path class="cls-1" d="M574 105.15V0h27.4v89h36.52L654 105.15z"/><path class="cls-2" d="M568 105.15V0h27.39v89h36.52L648 105.15z"/><path class="cls-3" d="M180.44 81.69c-15.32-8.78-40.15-11.2-52.64-11.86-4.2-.22-7.7 2.77-7.7 6.55v72.1c0 3.47 3 6.36 6.84 6.54 11.28.55 34.09 2.58 49.86 10 8.25 1.88 6.07-.29 5.29-2.87V84.46a3.17 3.17 0 00-1.65-2.77z"/><path class="cls-3" d="M182.61 84.46v77.71c-.84 2.87-3 4.75 5.29 2.87 15.77-7.44 38.58-9.47 49.86-10 3.85-.19 6.84-3.08 6.84-6.54V76.38c0-3.78-3.5-6.77-7.7-6.55-12.49.67-37.32 3.08-52.64 11.86a3.17 3.17 0 00-1.65 2.77z"/><path class="cls-4" d="M172.4 81.69c-15.32-8.78-40.15-11.2-52.64-11.86-4.2-.22-7.7 2.77-7.7 6.55v72.1c0 3.47 3 6.36 6.84 6.54 11.28.55 34.09 2.58 49.86 10 8.25 1.88 6.07-.29 5.29-2.87V84.46a3.17 3.17 0 00-1.65-2.77z"/><path class="cls-4" d="M174.58 84.46v77.71c-.84 2.87-3 4.75 5.29 2.87 15.77-7.44 38.58-9.47 49.86-10 3.85-.19 6.84-3.08 6.84-6.54V76.38c0-3.78-3.5-6.77-7.7-6.55-12.49.67-37.32 3.08-52.64 11.86a3.17 3.17 0 00-1.65 2.77z"/><path d="M328.69 1H34C19.68 1 8 13.19 8 28.22v181.39c0 15 11.64 27.21 26 27.21h130l6.78 35.49 27.88-35.49h130c14.36 0 26-12.18 26-27.21V28.22C354.69 13.19 343.05 1 328.69 1zM320 200.54H42.7V37.29H320z" fill="#b3b3b3"/><path class="cls-2" d="M320.65 1H26C11.64 1 0 13.19 0 28.22v181.39c0 15 11.64 27.21 26 27.21h130l14.82 35.49c20.1-35.75 0 0 19.84-35.49h130c14.36 0 26-12.18 26-27.21V28.22C346.65 13.19 335 1 320.65 1zM312 200.54H34.67V37.29H312z"/><path class="cls-6" d="M62.09 346.27v-3.93a65.91 65.91 0 01-9.53 5.76 21.63 21.63 0 00-3-4.2C59 339.59 68 331.63 72.15 324.85l7 .38a1.46 1.46 0 01-1.24.92c5.11 7 14.48 13.62 22.82 16.9a27.78 27.78 0 00-3.28 4.63 69.94 69.94 0 01-9.69-5.7v4.31zm-9.42 10.49V352h45v4.79H72.1l1.18.38q-.32.65-1.45.65a105.83 105.83 0 01-5.27 10.44c6.24-.16 13.24-.38 20.13-.59a73.87 73.87 0 00-6.69-6.92l4.41-2.37c5 4.25 10.17 10.06 12.7 14.15l-4.68 2.91a42.46 42.46 0 00-2.43-3.66c-12.59.7-25.83 1.29-34.23 1.67a1.09 1.09 0 01-.92.81L53 368.5c2.26-.05 5-.05 7.91-.16a93.21 93.21 0 005.27-11.57zm34.55-15.23a56.17 56.17 0 01-12.38-11.62 51.54 51.54 0 01-11.62 11.62zM152.24 355a11.34 11.34 0 014.9-1.13c2.85 0 4.79 2.26 4.79 5.33 0 1.4-.11 3.07-.11 4.25 0 4.84 2.69 4.84 6.4 4.84a45.26 45.26 0 007.27-.54 48.78 48.78 0 00.16 5.33c-2.15.22-4.74.32-7.1.32a48.12 48.12 0 01-5.38-.27c-4.14-.54-6.51-3.28-6.57-6.73 0-1.29.11-3.55.11-5.06 0-1.94-.81-3.07-2.42-3.07-2.58 0-6.14 1.45-9.26 4.41-2.91 2.85-8.61 8.56-10.28 10.55a56.11 56.11 0 00-4-4.14c5.27-5.17 20.93-20.07 25.89-24.81-3.71.38-14.42 1-20.24 1.29-.27.43-.43.65-.86.65l-.43-5.87c7.43-.16 21.26-.75 26.8-1.24l.92-.54 4.14 3.88a2.34 2.34 0 01-1.34.43c-3.39 2.91-9.15 8.13-13.35 12.06zM164 334.81a127.8 127.8 0 00-22.5-3.55l1.18-5a117 117 0 0122.66 3.39zM226.79 347.94a30.43 30.43 0 0111.79-2.48c8.34 0 13.88 5 13.88 13.13 0 9.74-8.5 15.23-19.75 15.23-7 0-11.84-3-11.84-8.13 0-4.14 4.2-7.53 9.2-7.53a11 11 0 0110.87 9 8.94 8.94 0 005.92-8.5c0-5.22-4-8.56-10.12-8.56-7.7 0-15 3.34-18.73 6.89-1.4 1.35-3.55 3.55-5 5.11l-3.82-3.77c4.25-4.41 18.73-18.19 26-24.92-2.85.38-12.92.86-18.08 1.08a1.7 1.7 0 01-1.18.86l-.54-6.19c7.1 0 21.63-.54 25.35-1.13l.81-.43 3.71 4.52a3.17 3.17 0 01-1.51.59c-3.28 2.53-12.65 11.19-17 15.12zm5.11 21.2a24.45 24.45 0 004-.43c-.48-3.5-3.12-6.24-6.35-6.24-2.26 0-4.31 1.24-4.31 3.23.04 2.74 3.76 3.44 6.66 3.44zM299.66 367.74a7.53 7.53 0 11-7.53-7.53 7.56 7.56 0 017.53 7.53zm-2.26 0a5.3 5.3 0 10-5.27 5.33 5.28 5.28 0 005.27-5.33zM412.26 356.22V361h-21.64v8.66c0 5.38-2.8 5.81-13.24 5.81a22.31 22.31 0 00-2.15-5c2.31.11 4.63.11 6.35.11 3.61 0 3.87 0 3.87-1.13V361H364v-4.74h21.42V352l2.91.16a42.89 42.89 0 005.65-4h-20.63v-4.52h25.72l.86-.22 3.93 2.37a1.79 1.79 0 01-1 .59 57.84 57.84 0 01-12.22 9.15v.7zM370 338.36v8h-4.79v-12.58h7.75a42.17 42.17 0 00-4.31-6.3l4.36-2a32.56 32.56 0 015.22 7.59l-1.45.7h9.53a37.85 37.85 0 00-3.82-7.48l4.47-1.67a33.66 33.66 0 014.47 8.4l-1.88.75h8.23a57.83 57.83 0 005.54-8.56 55.27 55.27 0 015.92 2.26c-.22.43-.65.59-1.35.54a67.76 67.76 0 01-4.36 5.76h8v12.59h-5.06v-8zM441.6 364.19a123.82 123.82 0 0012.92-10.06l2.69 4c-3.5 3.28-8.5 7.48-11.19 9.63a1.53 1.53 0 01-.7 1.56zm15.07-37.78a53.34 53.34 0 0020.5 6.4l-1.13 4.9a13.86 13.86 0 00-2-.22c-2.42 0-4.57 1-7.48 3.77l-4.63-1.56a18.84 18.84 0 015-3.87 44.33 44.33 0 01-12.75-5.27zm8 18.19a7.74 7.74 0 00-1.24 3.77c0 2 1.35 3.71 4.68 5.92 4.14 2.8 6.35 6.35 6.35 10.6 0 5.49-4.25 8.66-9.2 8.66-2.8 0-5.92-1-10.44-3.34a23.23 23.23 0 001.24-4.36c4.14 2.15 6.89 2.8 8.4 2.8 3 0 4.41-1.56 4.41-4 0-2.31-1.72-5.22-5.33-7.64s-5.38-5-5.38-8.13a12 12 0 011.72-5.76zm12 5.06a25 25 0 0114.21 15.07l-5.06 2.69c-2.21-6.57-6.83-11.89-12.16-14zm2.1-22.6a31 31 0 016.78 7.48l-2.64 2a31.39 31.39 0 00-6.62-7.53zm7.16-3.18a29.56 29.56 0 016.73 7.43l-2.64 2a32.07 32.07 0 00-6.57-7.43zM534.44 367.74a7.53 7.53 0 11-7.53-7.53 7.56 7.56 0 017.53 7.53zm-2.26 0a5.3 5.3 0 10-5.27 5.33 5.28 5.28 0 005.27-5.33zM602.1 332.87c3.34.22 8.13.22 12.05.22 2 0 4.25-.05 6.19-.11-.05-2.48-.11-5.27-.11-7l6.94.38c-.05.59-.48.92-1.4 1.08 0 1.51 0 3.71.05 5.38a112.48 112.48 0 0017-1.94l.59 5a116.28 116.28 0 01-17.65 1.78l.16 8.66a92.21 92.21 0 0014.32-1.94l.54 4.74a94.16 94.16 0 01-14.78 1.62c.11 3.12.22 5.92.32 8a55.37 55.37 0 0115.18 8l-3.23 4.63a50.94 50.94 0 00-11.73-7.48v2c-.05 4.79-3.44 7.8-10.44 7.8s-11.95-3.23-11.95-8.29c0-5.33 5.81-8.34 12.05-8.34a22.09 22.09 0 014.9.43c-.05-1.94-.11-4.2-.21-6.62-1.13.05-2.26.05-3.34.05-9.42 0-13.13-1.13-13.13-4.9 0-2.1 1.62-4 5.27-6.3l3.66 2.1c-3.18 1.56-3.5 2.53-3.5 3.12 0 1.29 2.1 1.51 6.4 1.56 1.35 0 3 0 4.47-.05-.11-3-.16-5.92-.27-8.77-2 .05-4.31.11-6.35.11-3.55 0-8.72-.05-12.05-.16zM621.36 362a20.17 20.17 0 00-5.44-.81c-3.66 0-6.94 1.51-6.94 4.14s3.12 4 7.21 4c3.71 0 5.17-1.61 5.17-4.79zM709.36 338a68.36 68.36 0 01-15.61 2.85c-2.15 11.79-5.49 24-9.53 33l-5.49-1.94c4.31-8.61 7.48-19.27 9.47-30.78-.81.05-1.67.05-2.42.05-2.58 0-5.06 0-6.94-.05l-.05-5.11c1.72.11 4.52.11 7.1.11 1 0 2 0 3.07-.05.43-3.23.86-7 1.18-10.23l7.27.7a1.78 1.78 0 01-1.56 1.18c-.32 2.15-.75 5.06-1.24 7.86a56.46 56.46 0 0013.67-2.85zm14.26 34.93c-1.62.11-3.34.16-5.11.16a55.66 55.66 0 01-12.16-1.13c-4.3-1.08-6.57-4.09-6.51-7.75a12.68 12.68 0 013.39-7.91l4.52 1.78c-1.78 1.94-2.64 3.82-2.64 5.33 0 3.77 4 4.47 12.22 4.47a62.39 62.39 0 006.4-.27zM703 346.38a66.37 66.37 0 0119.37-2.69v5.11a61.77 61.77 0 00-18.17 2.2zM766.42 346.27v-3.93a65.91 65.91 0 01-9.53 5.76 21.63 21.63 0 00-3-4.2c9.42-4.31 18.46-12.27 22.6-19.05l7 .38a1.46 1.46 0 01-1.24.92c5.11 7 14.48 13.62 22.82 16.9a27.78 27.78 0 00-3.28 4.63 69.94 69.94 0 01-9.69-5.7v4.31zM757 356.76V352h45v4.79h-25.57l1.18.38q-.32.65-1.45.65a105.83 105.83 0 01-5.27 10.44c6.24-.16 13.24-.38 20.13-.59a73.87 73.87 0 00-6.67-6.89l4.41-2.37c5 4.25 10.17 10.06 12.7 14.15l-4.68 2.91a42.46 42.46 0 00-2.42-3.66c-12.59.7-25.83 1.29-34.23 1.67a1.09 1.09 0 01-.92.81l-1.83-5.76c2.26-.05 5-.05 7.91-.16a93.21 93.21 0 005.27-11.57zm34.55-15.23a56.17 56.17 0 01-12.38-11.62 51.54 51.54 0 01-11.62 11.62zM856.57 355a11.34 11.34 0 014.9-1.13c2.85 0 4.79 2.26 4.79 5.33 0 1.4-.11 3.07-.11 4.25 0 4.84 2.69 4.84 6.4 4.84a45.26 45.26 0 007.27-.54 48.78 48.78 0 00.16 5.33c-2.15.22-4.74.32-7.1.32a48.12 48.12 0 01-5.38-.27c-4.14-.54-6.51-3.28-6.57-6.73 0-1.29.11-3.55.11-5.06 0-1.94-.81-3.07-2.42-3.07-2.58 0-6.14 1.45-9.26 4.41-2.91 2.85-8.61 8.56-10.28 10.55a56.11 56.11 0 00-4-4.14c5.27-5.17 20.93-20.07 25.89-24.81-3.71.38-14.42 1-20.24 1.29-.27.43-.43.65-.86.65l-.43-5.87c7.43-.16 21.26-.75 26.8-1.24l.92-.54 4.14 3.88a2.34 2.34 0 01-1.34.43c-3.39 2.91-9.15 8.13-13.35 12.06zm11.79-20.18a127.8 127.8 0 00-22.5-3.55l1.18-5a117 117 0 0122.66 3.39zM931.12 347.94a30.43 30.43 0 0111.79-2.48c8.34 0 13.88 5 13.88 13.13 0 9.74-8.5 15.23-19.75 15.23-7 0-11.84-3-11.84-8.13 0-4.14 4.2-7.53 9.2-7.53a11 11 0 0110.87 9 8.94 8.94 0 005.92-8.5c0-5.22-4-8.56-10.12-8.56-7.7 0-15 3.34-18.73 6.89-1.4 1.35-3.55 3.55-5 5.11l-3.82-3.77c4.25-4.41 18.73-18.19 26-24.92-2.85.38-12.92.86-18.08 1.08a1.7 1.7 0 01-1.18.86l-.54-6.19c7.1 0 21.63-.54 25.35-1.13l.81-.43 3.71 4.52a3.17 3.17 0 01-1.51.59c-3.28 2.53-12.65 11.19-17 15.12zm5.11 21.2a24.45 24.45 0 004-.43c-.48-3.5-3.12-6.24-6.35-6.24-2.26 0-4.31 1.24-4.31 3.23.04 2.74 3.75 3.44 6.66 3.44zM1004 367.74a7.53 7.53 0 11-7.53-7.53 7.56 7.56 0 017.53 7.53zm-2.26 0a5.3 5.3 0 10-5.27 5.33 5.28 5.28 0 005.26-5.33z"/></g></g></svg>