<svg xmlns="http://www.w3.org/2000/svg" viewBox="0 0 1049 408.68"><defs><style>.cls-1{fill:#ccc;}.cls-2{fill:#29c1e2;}.cls-3,.cls-4{fill:none;stroke-miterlimit:10;}.cls-3{stroke:#b3b3b3;stroke-width:8px;}.cls-4{stroke:#29c1e2;stroke-width:10px;}.cls-5{fill:#b3b3b3;}.cls-6{font-size:53.82px;fill:#1a1a1a;font-family:KozGoPr6N-Medium-83pv-RKSJ-H, Kozuka Gothic Pr6N;letter-spacing:0.45em;}.cls-7{letter-spacing:-0.05em;}</style></defs><title>アセット 11</title><g id="レイヤー_2" data-name="レイヤー 2"><g id="レイヤー_1-2" data-name="レイヤー 1"><path class="cls-1" d="M393.88,107.2V2.08h14.07l60.24,56.2V2.08h16.13V107.2H470.24L412,48.75V107.2Z"/><path class="cls-1" d="M496.39,107.2V2.08h67.8V13.71H523.54v35h41.15V60.52H523.54v35h40.65V107.2Z"/><path class="cls-1" d="M603.89,53.74,572.36,2.59H599l17.4,29.59,4,10.26,3.87-10.26L642.4,2.59h23.94L633.63,52.7l34.35,54H641.66L621.73,75,617.27,64.3,613,75,593,106.68H569.09Z"/><path class="cls-1" d="M710,107.2V13.71H677.23V2.08h92.44V13.71h-32V107.2Z"/><path class="cls-1" d="M568.78,154.74H554.94c-1.22-7.85-5.61-17.08-13.18-17.08q-7.34,0-11,2.94t-3.67,8.83q0,4.34,4,8.27l29.52,27.75q8.17,7.71,8.17,16.54v5.75q0,9.53-8.17,16.47a29.4,29.4,0,0,1-19.68,6.94H527.09q-13.85,0-20.85-5.82c-7.86-8.29-7-18.53-7-26.38h14V209.7a8,8,0,0,0,4.34,7.29,18.54,18.54,0,0,0,9.51,2.52q7.34,0,10.59-3t3.25-8.76q0-4.48-4-8.27l-29.52-27.75q-8.18-7.57-8.17-16.54v-5.75q0-9.53,8.17-16.47A29.39,29.39,0,0,1,527.09,126h13.84C558.38,126,567.67,139.13,568.78,154.74Z"/><path class="cls-1" d="M663.89,203c-1.09,15.61-4.74,28.17-27.22,28.17H609.28A28.86,28.86,0,0,1,590,224.27q-8.12-6.86-8.12-16.54V149.43q0-9.53,8-16.47A28.52,28.52,0,0,1,609.28,126h27.38c22.48,0,26.24,19.14,27.22,34.74H650.28s.83-23.11-13.61-23.11H622.89a14.29,14.29,0,0,0-9.59,3.43,10.58,10.58,0,0,0-4,8.34v58.31a10.65,10.65,0,0,0,4,8.27,14.1,14.1,0,0,0,9.59,3.5h13.77c12.43,0,13.61-16.54,13.61-16.54Z"/><path class="cls-1" d="M683.2,231.14V126h27.39v46.67H738V126h27.22V231.14H738V186.89H710.58v44.25Z"/><path class="cls-1" d="M805.85,126h27.39A28.39,28.39,0,0,1,852.43,133q8,6.94,8,16.47v58.31q0,9.53-8,16.47a28.39,28.39,0,0,1-19.19,6.94H805.85a28.87,28.87,0,0,1-19.27-6.87q-8.12-6.86-8.12-16.54V149.43q0-9.67,8.12-16.54A28.88,28.88,0,0,1,805.85,126Zm0,23.41v58.31a10.65,10.65,0,0,0,4,8.27,14.1,14.1,0,0,0,9.59,3.5,14.32,14.32,0,0,0,9.76-3.5,10.66,10.66,0,0,0,4-8.27V149.43a10.59,10.59,0,0,0-4-8.34,14.51,14.51,0,0,0-9.76-3.43,14.28,14.28,0,0,0-9.59,3.43A10.58,10.58,0,0,0,805.85,149.43Z"/><path class="cls-1" d="M901.13,126h27.39A28.39,28.39,0,0,1,947.7,133q8,6.94,8,16.47v58.31q0,9.53-8,16.47a28.39,28.39,0,0,1-19.19,6.94H901.13a28.86,28.86,0,0,1-19.27-6.87q-8.12-6.86-8.12-16.54V149.43q0-9.67,8.12-16.54A28.87,28.87,0,0,1,901.13,126Zm0,23.41v58.31a10.66,10.66,0,0,0,4,8.27,14.1,14.1,0,0,0,9.59,3.5,14.32,14.32,0,0,0,9.76-3.5,10.66,10.66,0,0,0,4-8.27V149.43a10.59,10.59,0,0,0-4-8.34,14.51,14.51,0,0,0-9.76-3.43,14.28,14.28,0,0,0-9.59,3.43A10.59,10.59,0,0,0,901.13,149.43Z"/><path class="cls-1" d="M969,231.14V126H996.4v89h36.52L1049,231.14Z"/><path class="cls-2" d="M387.85,107.2V2.08h14.07l60.24,56.2V2.08h16.13V107.2H464.21L405.93,48.75V107.2Z"/><path class="cls-2" d="M490.36,107.2V2.08h67.8V13.71H517.51v35h41.15V60.52H517.51v35h40.65V107.2Z"/><path class="cls-2" d="M597.86,53.74,566.33,2.59H593l17.4,29.59,4,10.26,3.87-10.26L636.37,2.59h23.94L627.6,52.7l34.35,54H635.63L615.7,75,611.24,64.3,606.93,75,587,106.68H563.06Z"/><path class="cls-2" d="M703.94,107.2V13.71H671.2V2.08h92.44V13.71h-32V107.2Z"/><path class="cls-2" d="M562.75,154.74H548.91c-1.22-7.85-5.61-17.08-13.18-17.08q-7.34,0-11,2.94t-3.67,8.83q0,4.34,4,8.27l29.52,27.75q8.17,7.71,8.17,16.54v5.75q0,9.53-8.17,16.47a29.4,29.4,0,0,1-19.68,6.94H521.06q-13.85,0-20.85-5.82c-7.86-8.29-7-18.53-7-26.38h14V209.7a8,8,0,0,0,4.34,7.29,18.54,18.54,0,0,0,9.51,2.52q7.34,0,10.59-3t3.25-8.76q0-4.48-4-8.27l-29.52-27.75q-8.18-7.57-8.17-16.54v-5.75q0-9.53,8.17-16.47A29.39,29.39,0,0,1,521.06,126H534.9C552.36,126,561.64,139.13,562.75,154.74Z"/><path class="cls-2" d="M657.86,203c-1.09,15.61-4.74,28.17-27.22,28.17H603.25A28.86,28.86,0,0,1,584,224.27q-8.12-6.86-8.12-16.54V149.43q0-9.53,8-16.47A28.52,28.52,0,0,1,603.25,126h27.38c22.48,0,26.24,19.14,27.22,34.74H644.25s.83-23.11-13.61-23.11H616.86a14.29,14.29,0,0,0-9.59,3.43,10.58,10.58,0,0,0-4,8.34v58.31a10.65,10.65,0,0,0,4,8.27,14.1,14.1,0,0,0,9.59,3.5h13.77c12.43,0,13.61-16.54,13.61-16.54Z"/><path class="cls-2" d="M677.17,231.14V126h27.39v46.67h27.38V126h27.22V231.14H731.94V186.89H704.55v44.25Z"/><path class="cls-2" d="M799.83,126h27.39A28.39,28.39,0,0,1,846.4,133q8,6.94,8,16.47v58.31q0,9.53-8,16.47a28.39,28.39,0,0,1-19.19,6.94H799.83a28.87,28.87,0,0,1-19.27-6.87q-8.12-6.86-8.12-16.54V149.43q0-9.67,8.12-16.54A28.88,28.88,0,0,1,799.83,126Zm0,23.41v58.31a10.65,10.65,0,0,0,4,8.27,14.1,14.1,0,0,0,9.59,3.5,14.32,14.32,0,0,0,9.76-3.5,10.66,10.66,0,0,0,4-8.27V149.43a10.59,10.59,0,0,0-4-8.34,14.51,14.51,0,0,0-9.76-3.43,14.28,14.28,0,0,0-9.59,3.43A10.58,10.58,0,0,0,799.83,149.43Z"/><path class="cls-2" d="M895.1,126h27.39A28.39,28.39,0,0,1,941.67,133q8,6.94,8,16.47v58.31q0,9.53-8,16.47a28.39,28.39,0,0,1-19.19,6.94H895.1a28.86,28.86,0,0,1-19.27-6.87q-8.12-6.86-8.12-16.54V149.43q0-9.67,8.12-16.54A28.87,28.87,0,0,1,895.1,126Zm0,23.41v58.31a10.66,10.66,0,0,0,4,8.27,14.1,14.1,0,0,0,9.59,3.5,14.32,14.32,0,0,0,9.76-3.5,10.66,10.66,0,0,0,4-8.27V149.43a10.59,10.59,0,0,0-4-8.34,14.51,14.51,0,0,0-9.76-3.43,14.28,14.28,0,0,0-9.59,3.43A10.59,10.59,0,0,0,895.1,149.43Z"/><path class="cls-2" d="M963,231.14V126h27.39v89h36.52L1043,231.14Z"/><path class="cls-3" d="M180.44,80.68c-15.32-8.78-40.15-11.2-52.64-11.86-4.2-.22-7.7,2.77-7.7,6.55v72.1c0,3.47,3,6.36,6.84,6.54,11.28.55,34.09,2.58,49.86,10,8.25,1.88,6.07-.29,5.29-2.87V83.45A3.17,3.17,0,0,0,180.44,80.68Z"/><path class="cls-3" d="M182.61,83.45v77.71c-.84,2.87-3,4.75,5.29,2.87,15.77-7.44,38.58-9.47,49.86-10,3.85-.19,6.84-3.08,6.84-6.54V75.37c0-3.78-3.5-6.77-7.7-6.55-12.49.67-37.32,3.08-52.64,11.86A3.17,3.17,0,0,0,182.61,83.45Z"/><path class="cls-4" d="M172.4,80.68c-15.32-8.78-40.15-11.2-52.64-11.86-4.2-.22-7.7,2.77-7.7,6.55v72.1c0,3.47,3,6.36,6.84,6.54,11.28.55,34.09,2.58,49.86,10,8.25,1.88,6.07-.29,5.29-2.87V83.45A3.17,3.17,0,0,0,172.4,80.68Z"/><path class="cls-4" d="M174.58,83.45v77.71c-.84,2.87-3,4.75,5.29,2.87,15.77-7.44,38.58-9.47,49.86-10,3.85-.19,6.84-3.08,6.84-6.54V75.37c0-3.78-3.5-6.77-7.7-6.55-12.49.67-37.32,3.08-52.64,11.86A3.17,3.17,0,0,0,174.58,83.45Z"/><path class="cls-5" d="M328.69,0H34C19.68,0,8,12.18,8,27.21V208.6c0,15,11.64,27.21,26,27.21H164l6.78,35.49h0L198.7,235.8h130c14.36,0,26-12.18,26-27.21V27.21C354.69,12.18,343.05,0,328.69,0ZM320,199.53H42.7V36.28H320Z"/><path class="cls-2" d="M320.65,0H26C11.64,0,0,12.18,0,27.21V208.6c0,15,11.64,27.21,26,27.21H156l14.82,35.49h0c20.1-35.75,0,0,19.84-35.49h130c14.36,0,26-12.18,26-27.21V27.21C346.65,12.18,335,0,320.65,0ZM312,199.53H34.67V36.28H312Z"/><text class="cls-6" transform="translate(48.09 369.53)">会える。学ぶ。また会える<tspan class="cls-7" x="939.11" y="0">。</tspan></text></g></g></svg>